<?xml version="1.0" encoding="UTF-8"?>
<svg width="269px" height="436px" viewBox="0 0 269 436" version="1.1" xmlns="http://www.w3.org/2000/svg" xmlns:xlink="http://www.w3.org/1999/xlink">
    <!-- Generator: Sketch 43.1 (39012) - http://www.bohemiancoding.com/sketch -->
    <title>Group 2</title>
    <desc>Created with Sketch.</desc>
    <defs></defs>
    <g id="Welcome" stroke="none" stroke-width="1" fill="none" fill-rule="evenodd">
        <g id="Desktop-Copy" transform="translate(-617.000000, -107.000000)" fill="#FFFFFF">
            <g id="Group-2" transform="translate(617.030791, 107.597221)">
                <path d="M191.427014,233.678598 C185.241805,217.54366 168.428288,173.43856 166.119633,163.860072 C163.356014,152.400154 165.884952,41.8746887 166.889185,19.4264345 C167.105149,14.5882377 167.09795,13.5463528 166.585395,9.73617078 C164.987262,-2.14719126 154.148029,-3.34817367 150.892732,7.94611954 C150.892732,7.94611954 149.619264,13.1628869 149.468089,14.7171475 C147.678468,33.112086 133.686161,149.669388 131.684894,157.993045 C130.15155,164.373264 97.4747579,211.533037 91.6775644,219.544209 C99.3169307,224.133561 107.218333,227.90866 115.362336,230.826264 C139.407767,239.437928 164.933271,240.383539 191.427014,233.678598" id="Fill-3-Copy"></path>
                <path d="M51.5573703,266.248188 C54.5203963,269.023829 68.8928001,275.715716 71.6067476,276.888142 C97.5613003,288.10411 112.994087,291.285245 135.765331,294.182452 C158.536574,297.077211 182.868517,296.526489 196.391463,294.158791 C217.10097,290.533815 225.771924,283.203906 225.771924,283.203906 L197.18909,250.579121 C182.142159,255.191318 167.31695,257.501903 152.797691,257.501903 C138.10926,257.501903 123.735416,255.141549 109.753188,250.414312 C98.7354246,246.690614 88.1085563,241.541565 77.9236944,235.032436 C77.9236944,235.032436 50.677677,255.430372 48.8506216,256.499997 C47.0235662,257.568806 44.3340946,259.484504 51.5573703,266.248188" id="Fill-4-Copy"></path>
                <path d="M122.556819,400.954095 C113.038566,399.739242 104.430961,397.224685 96.8052725,394.077002 C105.851284,411.414554 112.181189,423.470068 116.096616,430.901962 C118.662268,435.771979 124.237739,436.578073 127.668687,432.572894 C135.170556,423.816819 147.425073,409.468669 155.679217,399.572802 C149.354351,400.908405 142.443503,401.747951 135.041697,401.747951 C131.017568,401.747951 126.850903,401.500738 122.556819,400.954095" id="Fill-5-Copy"></path>
                <path d="M246.032027,300.473984 C246.032027,300.473984 246.064422,309.773439 226.302277,314.649166 C195.186904,322.325011 167.436971,324.545849 132.275873,320.478663 C77.6542602,314.162083 39.472546,293.664609 26.0856579,280.213933 C22.8692342,276.982213 22.5949599,274.811144 22.6554298,272.877497 C22.7698908,269.214174 28.0271742,265.67405 28.0271742,265.67405 C28.0271742,265.67405 10.9940941,272.210919 5.85199141,275.781231 C3.15172161,277.656134 -1.96230575,283.449732 2.28714576,290.284399 C5.37615074,295.25069 39.8656005,320.800938 52.4836567,333.425123 C73.8892879,354.842099 76.527648,356.464078 88.8937462,379.605018 C98.2053938,384.842999 109.824257,389.473961 123.460223,391.213427 C140.57321,393.40163 155.489123,390.389384 166.974808,386.219396 C193.627644,355.281861 218.521814,340.552693 239.546629,334.147997 C243.833514,333.141195 268.80903,323.542311 268.515319,316.120207 C268.202891,308.246918 246.032027,300.473984 246.032027,300.473984" id="Fill-6-Copy"></path>
            </g>
        </g>
    </g>
</svg>