<?xml version="1.0" encoding="UTF-8"?>
<svg width="101px" height="85px" viewBox="0 0 101 85" version="1.1" xmlns="http://www.w3.org/2000/svg" xmlns:xlink="http://www.w3.org/1999/xlink">
    <!-- Generator: Sketch 43.1 (39012) - http://www.bohemiancoding.com/sketch -->
    <title>Page 1</title>
    <desc>Created with Sketch.</desc>
    <defs></defs>
    <g id="Welcome" stroke="none" stroke-width="1" fill="none" fill-rule="evenodd">
        <g id="Desktop-Copy" transform="translate(-734.000000, -4011.000000)">
            <g id="Page-1" transform="translate(735.000000, 4013.000000)">
                <g id="Group-5" transform="translate(4.593750, 0.537198)" stroke-width="4" stroke="#282D33">
                    <polyline id="Stroke-1" points="81.2119109 42.5513632 81.2119109 72.6612028 0.681942187 72.6612028 0.681942187 42.8379198"></polyline>
                    <polyline id="Stroke-3" points="0.682248437 29.101084 0.682248437 0.226876415 81.2122172 0.226876415 81.2122172 28.8145274"></polyline>
                </g>
                <path d="M10.5847656,18.5979057 L20.8893125,18.5979057 L20.8893125,7.51389623 L10.5847656,7.51389623 L10.5847656,18.5979057 Z M13.6472656,15.5413019 L17.8268125,15.5413019 L17.8268125,10.5705 L13.6472656,10.5705 L13.6472656,15.5413019 Z" id="Fill-6" fill="#282D33"></path>
                <path d="M25.4876562,18.5979057 L35.7914375,18.5979057 L35.7914375,7.51389623 L25.4876562,7.51389623 L25.4876562,18.5979057 Z M28.5501562,15.5413019 L32.7289375,15.5413019 L32.7289375,10.5705 L28.5501562,10.5705 L28.5501562,15.5413019 Z" id="Fill-7" fill="#282D33"></path>
                <path d="M40.3867188,18.5979057 L50.6912656,18.5979057 L50.6912656,7.51389623 L40.3867188,7.51389623 L40.3867188,18.5979057 Z M43.4492188,15.5413019 L47.6287656,15.5413019 L47.6287656,10.5705 L43.4492188,10.5705 L43.4492188,15.5413019 Z" id="Fill-8" fill="#282D33"></path>
                <path d="M55.2896094,18.5979057 L65.5941563,18.5979057 L65.5941563,7.51389623 L55.2896094,7.51389623 L55.2896094,18.5979057 Z M58.3521094,15.5413019 L62.5316563,15.5413019 L62.5316563,10.5705 L58.3521094,10.5705 L58.3521094,15.5413019 Z" id="Fill-9" fill="#282D33"></path>
                <path d="M70.1909688,18.5979057 L80.4962813,18.5979057 L80.4962813,7.51389623 L70.1909688,7.51389623 L70.1909688,18.5979057 Z M73.2534688,15.5413019 L77.4337813,15.5413019 L77.4337813,10.5705 L73.2534688,10.5705 L73.2534688,15.5413019 Z" id="Fill-10" fill="#282D33"></path>
                <path d="M34.4489906,49.4189406 L21.3583344,49.4189406 L19.6119438,49.4189406 L10.7521313,49.4189406 L10.7521313,67.1472425 L19.6119438,67.1472425 L21.3583344,67.1472425 L34.4489906,67.1472425 L34.4489906,49.4189406 Z M31.3864906,52.4755443 L31.3864906,64.0906387 L21.3583344,64.0906387 L19.6119438,64.0906387 L13.8146313,64.0906387 L13.8146313,52.4755443 L19.6119438,52.4755443 L21.3583344,52.4755443 L31.3864906,52.4755443 Z" id="Fill-11" fill="#282D33"></path>
                <path d="M80.4941375,49.4189406 L67.40195,49.4189406 L65.6555594,49.4189406 L56.7972781,49.4189406 L56.7972781,67.1472425 L65.6555594,67.1472425 L67.40195,67.1472425 L80.4941375,67.1472425 L80.4941375,49.4189406 Z M77.4316375,52.4755443 L77.4316375,64.0906387 L67.40195,64.0906387 L65.6555594,64.0906387 L59.8597781,64.0906387 L59.8597781,52.4755443 L65.6555594,52.4755443 L67.40195,52.4755443 L77.4316375,52.4755443 Z" id="Fill-12" fill="#282D33"></path>
                <polyline id="Stroke-13" stroke="#282D33" stroke-width="4" points="39.5848031 73.2142953 39.5848031 51.1356821 51.4948656 51.1356821 51.4948656 73.2142953"></polyline>
                <g id="Group-18" transform="translate(0.000000, 0.537198)" stroke="#282D33" stroke-width="4">
                    <path d="M0.529659375,79.4716217 L90.5503156,79.4716217" id="Stroke-14"></path>
                    <path d="M1.38654688,0.2268 L89.6937344,0.2268" id="Stroke-16"></path>
                </g>
                <path d="M92.9355438,12.6344717 L87.2798719,12.6344717" id="Stroke-19" stroke="#282D33" stroke-width="4"></path>
                <path d="M92.9355438,22.5296151 L87.2798719,22.5296151" id="Stroke-20" stroke="#282D33" stroke-width="4"></path>
                <path d="M91.405825,16.1865509 L91.405825,19.0490604" id="Stroke-21" stroke="#282D33" stroke-width="4"></path>
                <g id="Group-28" transform="translate(0.000000, 5.886255)">
                    <polyline id="Stroke-22" stroke="#282D33" stroke-width="4" points="89.6935812 21.8536472 94.2123 21.8536472 94.7796281 21.8536472 97.9271125 21.8536472 97.9271125 0.679788679 94.7796281 0.679788679 94.2123 0.679788679 89.6935812 0.679788679"></polyline>
                    <polyline id="Stroke-24" stroke="#282D33" stroke-width="4" points="1.06199844 28.1840264 11.3366859 18.3104321 79.4129984 18.3104321 89.6876859 28.1840264"></polyline>
                    <path d="M90.5040719,27.1333189 L87.4415719,27.1333189 L3.28100937,27.1333189 L0.218509375,27.1333189 L0.218509375,30.1899226 L0.218509375,31.0381302 C0.218509375,35.8201868 4.10482187,39.7104792 8.8830875,39.7104792 C10.8178219,39.7104792 12.6300562,39.081583 14.0939312,37.9758566 C15.5593375,39.081583 17.3715719,39.7104792 19.3070719,39.7104792 C21.2418062,39.7104792 23.0540406,39.081583 24.5179156,37.9766208 C25.9840875,39.081583 27.7955562,39.7104792 29.729525,39.7104792 C31.6627281,39.7104792 33.4749625,39.081583 34.9396031,37.9766208 C36.4034781,39.081583 38.2157125,39.7104792 40.1504469,39.7104792 C42.0859469,39.7104792 43.8974156,39.081583 45.3620562,37.9758566 C46.8259312,39.081583 48.6381656,39.7104792 50.5736656,39.7104792 C52.5084,39.7104792 54.3198687,39.081583 55.7845094,37.9758566 C57.2499156,39.081583 59.0613844,39.7104792 60.9961187,39.7104792 C62.9293219,39.7104792 64.7423219,39.081583 66.2069625,37.9766208 C67.6716031,39.081583 69.4823062,39.7104792 71.4170406,39.7104792 C73.3510094,39.7104792 75.1632437,39.081583 76.62865,37.9758566 C78.092525,39.081583 79.9047594,39.7104792 81.8417906,39.7104792 C86.6177594,39.7104792 90.5040719,35.8201868 90.5040719,31.0381302 L90.5040719,30.1899226 L90.5040719,27.1333189 Z M87.4415719,30.1899226 L87.4415719,31.0381302 C87.4415719,34.1398189 84.93415,36.6538755 81.8417906,36.6538755 C79.4683531,36.6538755 77.4455719,35.1729509 76.6301812,33.087583 C75.8109625,35.1729509 73.7889469,36.6538755 71.4170406,36.6538755 C69.0474312,36.6538755 67.0238844,35.1744792 66.2077281,33.0891113 C65.389275,35.1744792 63.3664937,36.6538755 60.9961187,36.6538755 C58.6226812,36.6538755 56.6029625,35.1729509 55.7845094,33.087583 C54.9668219,35.1729509 52.943275,36.6538755 50.5736656,36.6538755 C48.2017594,36.6538755 46.1797437,35.1729509 45.3620562,33.087583 C44.5443687,35.1729509 42.5208219,36.6538755 40.1504469,36.6538755 C37.7816031,36.6538755 35.7557594,35.1744792 34.9396031,33.0891113 C34.12115,35.1744792 32.0999,36.6538755 29.729525,36.6538755 C27.3560875,36.6538755 25.3348375,35.1729509 24.5156187,33.087583 C23.7009937,35.1729509 21.6782125,36.6538755 19.3070719,36.6538755 C16.9321031,36.6538755 14.9123844,35.1729509 14.0954625,33.087583 C13.277775,35.1729509 11.2542281,36.6538755 8.8830875,36.6538755 C5.78919687,36.6538755 3.28100937,34.1398189 3.28100937,31.0381302 L3.28100937,30.1899226 L87.4415719,30.1899226 L87.4415719,30.1899226 Z" id="Fill-26" fill="#282D33"></path>
                </g>
            </g>
        </g>
    </g>
</svg>