<?xml version="1.0" encoding="UTF-8"?>
<svg width="79px" height="87px" viewBox="0 0 79 87" version="1.1" xmlns="http://www.w3.org/2000/svg" xmlns:xlink="http://www.w3.org/1999/xlink">
    <!-- Generator: Sketch 43.1 (39012) - http://www.bohemiancoding.com/sketch -->
    <title>Page 1</title>
    <desc>Created with Sketch.</desc>
    <defs></defs>
    <g id="Welcome" stroke="none" stroke-width="1" fill="none" fill-rule="evenodd">
        <g id="Desktop-Copy" transform="translate(-480.000000, -4011.000000)" stroke="#282D33" stroke-width="4">
            <g id="Page-1" transform="translate(480.000000, 4011.000000)">
                <g id="Group-5" transform="translate(34.517241, 0.000000)">
                    <path d="M10.2964931,0 L10.2964931,7.044375" id="Stroke-1"></path>
                    <path d="M0.127647414,3.22628125 L3.66699224,9.32635937" id="Stroke-3"></path>
                </g>
                <path d="M27.4605233,11.0763633 L33.5919802,14.5972227" id="Stroke-6"></path>
                <path d="M25.1845759,21.44975 L32.2645931,21.44975" id="Stroke-7"></path>
                <path d="M28.4257448,31.5643516 L34.5552103,28.0421641" id="Stroke-8"></path>
                <path d="M64.0955302,29.9009414 L57.9654009,26.380082" id="Stroke-9"></path>
                <path d="M66.3721414,19.5295469 L59.2927879,19.5295469" id="Stroke-10"></path>
                <path d="M63.1322336,9.41295313 L57.0001129,12.9351406" id="Stroke-11"></path>
                <g id="Group-21" transform="translate(0.000000, 1.992188)">
                    <path d="M55.2393353,0.272332031 L51.7013181,6.37373828" id="Stroke-12"></path>
                    <path d="M24.1901474,72.43275 L30.001656,72.43275 C32.0985784,75.2257969 35.433475,77.0413438 39.2051474,77.0413438 L46.883906,77.0413438 L57.8776474,77.0413438 L58.4412078,77.0413438 L58.4418716,77.0154453 L63.0207164,77.0154453 C65.8975957,77.0154453 68.2328198,74.6932188 68.2328198,71.8304453 C68.2328198,68.9630234 65.8975957,66.6427891 63.0207164,66.6427891 L67.1913284,66.6427891 C70.0708629,66.6427891 72.4054233,64.3185703 72.4054233,61.4557969 C72.4054233,58.5916953 70.0708629,56.2674766 67.1913284,56.2674766 L68.5806474,56.2674766 C71.4601819,56.2674766 73.7947422,53.94525 73.7947422,51.0824766 C73.7947422,48.2190391 71.4601819,45.8961484 68.5806474,45.8961484 L71.3619405,45.8961484 C74.2401474,45.8961484 76.5727164,43.5719297 76.5727164,40.7091563 C76.5727164,37.8457188 74.2401474,35.5234922 71.3619405,35.5234922 L56.7631388,35.5234922 C56.4631043,35.5234922 56.1716991,35.5520469 55.8862681,35.6018516 L50.0428974,35.6018516 L51.8782853,29.1531406 L51.8782853,21.8431406 C51.8782853,18.255875 48.9549405,15.3466172 45.3432422,15.3466172 L43.1713112,15.3466172 C43.0816991,15.3466172 42.9934147,15.35525 42.9011474,15.3605625 L42.9011474,25.3035703 L40.3694405,28.8516563 L30.8765353,39.1705234 C29.5177509,40.5942734 28.5320181,42.3586875 28.0481129,44.3269688 L24.1901474,44.3269688" id="Stroke-14"></path>
                    <g id="Group-18" transform="translate(0.000000, 41.835938)">
                        <polyline id="Stroke-16" points="-6.63793103e-05 0.37028125 19.1224853 0.37028125 19.1224853 41.1716094 -6.63793103e-05 41.1716094"></polyline>
                    </g>
                    <path d="M14.3713198,77.1616055 L10.7981216,77.1616055" id="Stroke-19"></path>
                </g>
            </g>
        </g>
    </g>
</svg>